<?xml version="1.0" standalone="no"?>
<!DOCTYPE svg PUBLIC "-//W3C//DTD SVG 20010904//EN"
 "http://www.w3.org/TR/2001/REC-SVG-20010904/DTD/svg10.dtd">
<svg version="1.0" xmlns="http://www.w3.org/2000/svg"
 width="128.000000pt" height="128.000000pt" viewBox="0 0 128.000000 128.000000"
 preserveAspectRatio="xMidYMid meet">
<metadata>
Created by potrace 1.14, written by Peter Selinger 2001-2017
</metadata>
<g transform="translate(0.000000,128.000000) scale(0.100000,-0.100000)"
fill="#000000" stroke="none">
<path d="M0 640 l0 -640 640 0 640 0 0 640 0 640 -640 0 -640 0 0 -640z m895
220 c-3 -5 -13 -10 -21 -10 -8 0 -14 5 -14 10 0 6 9 10 21 10 11 0 17 -4 14
-10z m13 -91 c-3 -8 -7 -3 -11 10 -4 17 -3 21 5 13 5 -5 8 -16 6 -23z m132
-304 c0 -6 -24 -52 -38 -73 -6 -9 -16 -10 -34 -3 -26 10 -48 -1 -48 -23 0 -6
5 -5 12 2 31 31 63 -5 33 -38 -20 -22 -55 -27 -55 -9 0 7 -9 9 -21 6 -47 -12
-29 56 26 98 39 30 125 57 125 40z m-29 -188 c-15 -15 -24 -2 -16 24 7 20 8
21 17 5 7 -12 7 -21 -1 -29z m-46 14 c-3 -6 -11 -8 -17 -5 -6 4 -5 9 3 15 16
10 23 4 14 -10z m-182 -21 c17 -1 14 -4 -13 -16 -19 -8 -43 -13 -53 -10 -11 3
-23 -4 -32 -18 -12 -18 -25 -23 -72 -25 -50 -2 -55 0 -43 13 7 9 22 16 33 16
11 0 29 7 39 16 9 9 34 18 54 20 21 2 42 8 48 14 7 7 12 7 14 0 2 -5 13 -10
25 -10z m12 -50 c3 -5 -1 -10 -10 -10 -9 0 -13 5 -10 10 3 6 8 10 10 10 2 0 7
-4 10 -10z"/>
</g>
</svg>
